<svg width="256" height="245" viewBox="0 0 256 245" fill="none" xmlns="http://www.w3.org/2000/svg">
<path d="M138.973 9.99573L125.973 18.9957C135.372 19.9078 143.07 21.3045 150.473 23.5526C150.473 23.5526 175.373 20.1957 179.473 16.9957L167.473 10.4957C167.473 10.4957 172.473 7.49573 176.473 4.99573C180.473 2.49573 177.473 -2.00427 172.473 0.995728C167.473 3.99573 161.473 7.93619 161.473 7.93619L160.373 7.45265C156.473 5.99573 148.073 3.99573 147.473 3.99573C146.473 3.43881 144.973 5.99573 138.973 9.99573Z" fill="#ECC115"/>
<path d="M236.473 94.9957L220.473 108.996C221.355 119.693 221.175 125.609 219.473 135.996C219.473 135.996 246.973 112.996 252.473 107.996C257.973 102.996 256.609 98.7723 249.973 103.496L238.818 112.996C238.552 107.003 237.906 102.187 236.473 94.9957Z" fill="#ECC115"/>
<path d="M208.473 167.996L235.973 145.996C238.165 136.087 238.973 130.073 238.973 119.496L219.473 135.996C217.138 149.655 214.566 156.564 208.473 167.996Z" fill="#156B96"/>
<path d="M150.473 23.4957C159.662 26.5029 164.384 28.837 172.473 33.4957L183.973 19.4957C178.042 15.6748 174.366 13.815 167.473 10.4957L150.473 23.4957Z" fill="#156BC1"/>
<path d="M225.473 64.4957L210.973 75.9957C206.602 67.275 203.681 62.3583 196.973 54.4957L210.973 42.6961C217.292 50.7139 220.973 55.4957 225.473 64.4957Z" fill="#156BC1"/>
<path d="M183.973 19.4957L172.473 33.4957C177.98 36.9042 180.777 39.0204 185.473 42.9957L200.473 31.9957C200.464 31.9871 200.454 31.9785 200.445 31.97C205.841 28.0372 211.361 24.07 214.473 21.9957C221.973 16.9957 218.861 13.3753 211.973 17.9957C205.085 22.6162 196.473 28.4957 196.473 28.4957C192.839 25.4224 189.04 22.6123 183.973 19.4957Z" fill="#EC6BC1"/>
<path d="M225.473 64.4957L210.973 75.9957C216.744 87.8763 218.455 95.2817 220.473 108.996L236.473 94.9957C235.253 89.7425 234.114 85.5147 232.763 81.4957L243.473 75.9957C247.973 73.9957 246.973 70.4957 241.973 72.4957L231.473 77.8913C229.908 73.7716 228.018 69.6112 225.473 64.4957Z" fill="#EC4096"/>
<path d="M196.973 54.4957C193.473 49.9957 189.473 46.4957 185.473 42.9957L200.473 31.9957C204.865 36.0367 207.16 38.3805 210.973 42.6957L196.973 54.4957Z" fill="#15C1C1"/>
<path d="M208.473 167.996C190.928 195.257 178.433 204.682 152.973 214.496L152.841 214.605L124.473 237.996C150.628 236.928 163.595 232.066 184.973 218.996C199.835 208.854 207.052 201.837 217.973 186.996C222.188 180.635 225.287 175.336 227.803 169.996C227.803 169.996 239.973 158.496 244.973 153.996C249.973 149.496 247.973 146.496 242.973 150.996C237.973 155.496 230.955 162.496 230.955 162.496C232.766 157.642 234.323 152.38 235.973 145.996L208.473 167.996Z" fill="#15C1C1"/>
<path d="M124.473 237.996L152.973 214.496C142.005 218.19 135.394 219.306 122.973 219.996L101.473 236.496C108.914 237.804 115.109 238.142 124.473 237.996Z" fill="#156B96"/>
<path d="M122.973 219.996L101.473 236.496C95.2885 235.357 91.0227 234.487 86.4728 233.134C86.4728 233.134 80.9729 237.996 75.4728 242.496C69.9728 246.996 67.4728 243.496 71.4728 239.996C75.4729 236.496 97.4403 217.948 97.4403 217.948L97.9728 217.496C106.922 219.361 112.367 219.982 122.973 219.996Z" fill="#ECC115"/>
<path d="M81.4728 231.496L97.9728 217.496C83.5548 213.321 75.8635 210.495 64.4728 202.996L50.9728 215.496C62.7602 223.975 69.1571 226.787 81.4728 231.496Z" fill="#EC4096"/>
<path d="M64.4728 202.996L50.9728 215.496C48.8356 213.916 46.8907 212.432 45.0915 210.996C45.0915 210.996 31.4728 221.496 26.9728 224.996C22.4728 228.496 19.4728 226.496 24.4728 222.496C29.4728 218.496 41.9728 208.43 41.9728 208.43C35.2368 202.703 30.4815 197.313 24.4728 188.996L39.4728 178.996C47.8827 189.912 53.5007 195.002 64.4728 202.996Z" fill="#156BC1"/>
<path d="M39.4728 178.996L24.4728 188.996C23.0573 186.955 21.8401 185.167 20.7473 183.496C20.7473 183.496 16.9728 186.996 13.4728 190.496C9.97279 193.996 7.97278 190.496 10.9728 187.496C13.9728 184.496 18.5396 179.996 18.5396 179.996C16.7632 177.059 15.2345 174.187 13.4728 170.496L28.4728 159.996C31.903 167.282 34.2901 171.837 39.4728 178.996Z" fill="#15C1C1"/>
<path d="M28.4728 159.996L13.4728 170.496C12.413 168.191 11.6475 166.47 10.7018 164.259C9.75139 164.978 7.974 166.177 5.47276 167.996C-0.0272417 171.996 -2.52722 170.073 3.47276 164.996C8.42517 160.805 8.95408 160.126 8.9878 160.017C8.98517 160.01 8.98254 160.003 8.97991 159.996C7.21339 155.336 5.88894 150.798 4.47276 144.496L20.9728 133.996C22.6685 144.408 24.3604 150.09 28.4728 159.996Z" fill="#EC6BC1"/>
<path d="M20.9728 133.996L4.47278 144.496C3.38361 138.822 2.80844 135.643 2.47278 129.996L19.9728 117.496C19.9611 124.461 20.2104 128.03 20.9728 133.996Z" fill="#156BC1"/>
<path d="M2.47283 129.996L19.9728 117.496C20.4723 105.822 21.599 99.3662 24.9728 87.9957L2.97283 102.496C1.44091 113.137 1.59586 119.177 2.47283 129.996Z" fill="#ECC115"/>
<path d="M69.4727 32.9958C44.5596 50.1761 34.4311 61.9986 24.9728 87.9957L2.97276 102.496C4.99286 91.4975 7.45793 81.8652 10.4728 73.9957C10.4728 73.9957 7.97276 76.4957 4.97277 78.9957C1.97278 81.4957 0.472798 78.9957 3.97278 75.4957L16.4728 62.9957C19.9728 55.9957 22.338 52.5665 26.9728 46.4958C43.9319 24.2826 60.9727 12.9958 85.9727 5.99575C110.973 -1.00426 125.973 -0.504269 149.973 4.49575L129.473 19.4957C106.379 18.5916 93.2555 21.2975 69.4727 32.9958Z" fill="#EC4096"/>
<path d="M153.5 111L123 54L92.5 111H153.5Z" fill="#ECC115"/>
<path d="M123 168L92.5 111L62 168H123Z" fill="#DA5161"/>
<path d="M184 168L153.5 111L123 168H184Z" fill="#3982A3"/>
<path d="M107.5 83L122.5 111L138.5 83L107.5 83Z" fill="white"/>
<path d="M77 140L92 168L108 140H77Z" fill="white"/>
<path d="M138 140L153 168L169 140H138Z" fill="white"/>
</svg>
