<svg width="333" height="312" viewBox="0 0 333 312" fill="none" xmlns="http://www.w3.org/2000/svg">
<path d="M181.973 9.99573L168.973 18.9957C178.372 19.9078 186.07 21.3045 193.473 23.5526C193.473 23.5526 218.373 20.1957 222.473 16.9957L210.473 10.4957C210.473 10.4957 215.473 7.49573 219.473 4.99573C223.473 2.49573 220.473 -2.00427 215.473 0.995728C210.473 3.99573 204.473 7.93619 204.473 7.93619L203.373 7.45265C199.473 5.99573 191.073 3.99573 190.473 3.99573C189.473 3.43881 187.973 5.99573 181.973 9.99573Z" fill="#ECC115"/>
<path d="M279.473 94.9957L263.473 108.996C264.355 119.693 264.175 125.609 262.473 135.996C262.473 135.996 289.973 112.996 295.473 107.996C300.973 102.996 299.609 98.7723 292.973 103.496L281.818 112.996C281.552 107.003 280.906 102.187 279.473 94.9957Z" fill="#ECC115"/>
<path d="M251.473 167.996L278.973 145.996C281.165 136.087 281.973 130.073 281.973 119.496L262.473 135.996C260.138 149.655 257.566 156.564 251.473 167.996Z" fill="#156B96"/>
<path d="M193.473 23.4957C202.662 26.5029 207.384 28.837 215.473 33.4957L226.973 19.4957C221.042 15.6748 217.366 13.815 210.473 10.4957L193.473 23.4957Z" fill="#156BC1"/>
<path d="M268.473 64.4957L253.973 75.9957C249.602 67.275 246.681 62.3583 239.973 54.4957L253.973 42.6961C260.292 50.7139 263.973 55.4957 268.473 64.4957Z" fill="#156BC1"/>
<path d="M226.973 19.4957L215.473 33.4957C220.98 36.9042 223.777 39.0204 228.473 42.9957L243.473 31.9957C243.464 31.9871 243.454 31.9785 243.445 31.97C248.841 28.0372 254.361 24.07 257.473 21.9957C264.973 16.9957 261.861 13.3753 254.973 17.9957C248.085 22.6162 239.473 28.4957 239.473 28.4957C235.839 25.4224 232.04 22.6123 226.973 19.4957Z" fill="#EC6BC1"/>
<path d="M268.473 64.4957L253.973 75.9957C259.744 87.8763 261.455 95.2817 263.473 108.996L279.473 94.9957C278.253 89.7425 277.114 85.5147 275.763 81.4957L286.473 75.9957C290.973 73.9957 289.973 70.4957 284.973 72.4957L274.473 77.8913C272.908 73.7716 271.018 69.6112 268.473 64.4957Z" fill="#EC4096"/>
<path d="M239.973 54.4957C236.473 49.9957 232.473 46.4957 228.473 42.9957L243.473 31.9957C247.865 36.0367 250.16 38.3805 253.973 42.6957L239.973 54.4957Z" fill="#15C1C1"/>
<path d="M251.473 167.996C233.928 195.257 221.433 204.682 195.973 214.496L195.841 214.605L167.473 237.996C193.628 236.928 206.595 232.066 227.973 218.996C242.835 208.854 250.052 201.837 260.973 186.996C265.188 180.635 268.287 175.336 270.803 169.996C270.803 169.996 282.973 158.496 287.973 153.996C292.973 149.496 290.973 146.496 285.973 150.996C280.973 155.496 273.955 162.496 273.955 162.496C275.766 157.642 277.323 152.38 278.973 145.996L251.473 167.996Z" fill="#15C1C1"/>
<path d="M167.473 237.996L195.973 214.496C185.005 218.19 178.394 219.306 165.973 219.996L144.473 236.496C151.914 237.804 158.109 238.142 167.473 237.996Z" fill="#156B96"/>
<path d="M165.973 219.996L144.473 236.496C138.289 235.357 134.023 234.487 129.473 233.134C129.473 233.134 123.973 237.996 118.473 242.496C112.973 246.996 110.473 243.496 114.473 239.996C118.473 236.496 140.44 217.948 140.44 217.948L140.973 217.496C149.922 219.361 155.367 219.982 165.973 219.996Z" fill="#ECC115"/>
<path d="M124.473 231.496L140.973 217.496C126.555 213.321 118.863 210.495 107.473 202.996L93.9728 215.496C105.76 223.975 112.157 226.787 124.473 231.496Z" fill="#EC4096"/>
<path d="M107.473 202.996L93.9728 215.496C91.8356 213.916 89.8907 212.432 88.0915 210.996C88.0915 210.996 74.4728 221.496 69.9728 224.996C65.4728 228.496 62.4728 226.496 67.4728 222.496C72.4728 218.496 84.9728 208.43 84.9728 208.43C78.2368 202.703 73.4815 197.313 67.4728 188.996L82.4728 178.996C90.8827 189.912 96.5007 195.002 107.473 202.996Z" fill="#156BC1"/>
<path d="M82.4728 178.996L67.4728 188.996C66.0573 186.955 64.8401 185.167 63.7473 183.496C63.7473 183.496 59.9728 186.996 56.4728 190.496C52.9728 193.996 50.9728 190.496 53.9728 187.496C56.9728 184.496 61.5396 179.996 61.5396 179.996C59.7632 177.059 58.2345 174.187 56.4728 170.496L71.4728 159.996C74.903 167.282 77.2901 171.837 82.4728 178.996Z" fill="#15C1C1"/>
<path d="M71.4728 159.996L56.4728 170.496C55.413 168.191 54.6475 166.47 53.7018 164.259C52.7514 164.978 50.974 166.177 48.4728 167.996C42.9728 171.996 40.4728 170.073 46.4728 164.996C51.4252 160.805 51.9541 160.126 51.9878 160.017C51.9852 160.01 51.9825 160.003 51.9799 159.996C50.2134 155.336 48.8889 150.798 47.4728 144.496L63.9728 133.996C65.6685 144.408 67.3604 150.09 71.4728 159.996Z" fill="#EC6BC1"/>
<path d="M63.9728 133.996L47.4728 144.496C46.3836 138.822 45.8084 135.643 45.4728 129.996L62.9728 117.496C62.9611 124.461 63.2104 128.03 63.9728 133.996Z" fill="#156BC1"/>
<path d="M45.4728 129.996L62.9728 117.496C63.4723 105.822 64.599 99.3662 67.9728 87.9957L45.9728 102.496C44.4409 113.137 44.5959 119.177 45.4728 129.996Z" fill="#ECC115"/>
<path d="M112.473 32.9958C87.5596 50.1761 77.4311 61.9986 67.9728 87.9957L45.9728 102.496C47.9929 91.4975 50.4579 81.8652 53.4728 73.9957C53.4728 73.9957 50.9728 76.4957 47.9728 78.9957C44.9728 81.4957 43.4728 78.9957 46.9728 75.4957L59.4728 62.9957C62.9728 55.9957 65.338 52.5665 69.9728 46.4958C86.9319 24.2826 103.973 12.9958 128.973 5.99575C153.973 -1.00426 168.973 -0.504269 192.973 4.49575L172.473 19.4957C149.379 18.5916 136.255 21.2975 112.473 32.9958Z" fill="#EC4096"/>
<path d="M196.5 111L166 54L135.5 111H196.5Z" fill="#ECC115"/>
<path d="M166 168L135.5 111L105 168H166Z" fill="#DA5161"/>
<path d="M227 168L196.5 111L166 168H227Z" fill="#3982A3"/>
<path d="M150.5 83L165.5 111L181.5 83L150.5 83Z" fill="white"/>
<path d="M120 140L135 168L151 140H120Z" fill="white"/>
<path d="M181 140L196 168L212 140H181Z" fill="white"/>
<path d="M16.1016 267.812H18.5625L32.9297 301H28.1953L25.0547 293.734H8.4375L5.03906 301H0.585938L16.1016 267.812ZM23.3672 289.797L20.3672 282.836C19.9922 281.961 19.625 281.055 19.2656 280.117L18.3281 277.469C17.7344 275.75 17.3828 274.578 17.2734 273.953H16.9922C16.8672 274.578 16.5859 275.469 16.1484 276.625C16.1484 276.625 15.75 277.641 14.9531 279.672C14.5938 280.547 14.2031 281.438 13.7812 282.344L10.2891 289.797H23.3672ZM74.5041 274.703C71.9103 272.391 68.5744 271.234 64.4963 271.234C60.7931 271.234 57.6525 272.453 55.0744 274.891C52.465 277.344 51.1603 280.398 51.1603 284.055C51.1603 287.836 52.5041 291.039 55.1916 293.664C57.8634 296.273 61.1056 297.578 64.9181 297.578C67.6838 297.578 70.4416 296.875 73.1916 295.469C74.0041 295.062 74.7072 294.617 75.3009 294.133L76.9884 297.367C74.6916 299.336 71.7306 300.609 68.1056 301.188C66.9338 301.375 65.7306 301.469 64.4963 301.469C62.0431 301.469 59.7306 301.062 57.5588 300.25C55.3869 299.422 53.4806 298.273 51.84 296.805C50.215 295.32 48.9259 293.555 47.9728 291.508C47.0353 289.461 46.5666 287.398 46.5666 285.32C46.5666 283.242 46.7775 281.445 47.1994 279.93C47.6369 278.398 48.2541 276.992 49.0509 275.711C49.8478 274.414 50.8009 273.25 51.9103 272.219C53.0197 271.188 54.2541 270.312 55.6134 269.594C58.4572 268.094 61.5588 267.344 64.9181 267.344C69.465 267.344 73.3869 268.641 76.6838 271.234L74.5041 274.703ZM104.266 267.812H106.727L121.094 301H116.36L113.219 293.734H96.6019L93.2034 301H88.7503L104.266 267.812ZM111.532 289.797L108.532 282.836C108.157 281.961 107.789 281.055 107.43 280.117L106.493 277.469C105.899 275.75 105.547 274.578 105.438 273.953H105.157C105.032 274.578 104.75 275.469 104.313 276.625C104.313 276.625 103.914 277.641 103.118 279.672C102.758 280.547 102.368 281.438 101.946 282.344L98.4534 289.797H111.532ZM135.833 267.812H149.45C154.528 267.812 158.614 269.234 161.708 272.078C164.911 275.016 166.512 278.945 166.512 283.867C166.512 289.07 164.872 293.234 161.59 296.359C158.356 299.453 154.09 301 148.793 301H135.833V267.812ZM149.379 297.062C153.27 297.062 156.34 295.891 158.59 293.547C160.809 291.234 161.918 288.102 161.918 284.148C161.918 280.336 160.692 277.305 158.239 275.055C155.848 272.852 152.692 271.75 148.77 271.75H140.168V297.062H149.379ZM183.173 267.812H207.946V271.75H187.508V280.703H205.719V284.641H187.508V297.062H208.415V301H183.173V267.812ZM227.536 267.836H228.825L243.473 283.891L258.098 267.836H259.481L262.294 301H258.052L255.919 276.039L243.52 289.773H243.052L231.028 276.25L229.153 301H224.958L227.536 267.836ZM280.618 267.812H284.954V301H280.618V267.812ZM313.122 284.266L300.232 267.812H305.927L315.958 280.633L325.919 267.812H331.099L318.56 283.938L331.943 301H326.247L315.724 287.594L305.318 301H300.138L313.122 284.266Z" fill="black"/>
</svg>
